<svg aria-hidden="true" style="position: absolute; width: 0; height: 0; overflow: hidden;" version="1.1" xmlns="http://www.w3.org/2000/svg" xmlns:xlink="http://www.w3.org/1999/xlink">
<defs>
<symbol id="icon-phone" viewBox="0 0 13 16">
<title>phone</title>
<path d="M12.571 11.071c0 0.321-0.143 0.946-0.277 1.241-0.188 0.438-0.688 0.723-1.089 0.946-0.527 0.286-1.063 0.455-1.661 0.455-0.83 0-1.58-0.339-2.339-0.616-0.545-0.196-1.071-0.438-1.563-0.741-1.518-0.938-3.348-2.768-4.286-4.286-0.304-0.491-0.545-1.018-0.741-1.563-0.277-0.759-0.616-1.509-0.616-2.339 0-0.598 0.17-1.134 0.455-1.661 0.223-0.402 0.509-0.902 0.946-1.089 0.295-0.134 0.92-0.277 1.241-0.277 0.063 0 0.125 0 0.188 0.027 0.188 0.063 0.384 0.5 0.473 0.679 0.286 0.509 0.563 1.027 0.857 1.527 0.143 0.232 0.411 0.518 0.411 0.795 0 0.545-1.616 1.339-1.616 1.821 0 0.241 0.223 0.554 0.348 0.768 0.902 1.625 2.027 2.75 3.652 3.652 0.214 0.125 0.527 0.348 0.768 0.348 0.482 0 1.277-1.616 1.821-1.616 0.277 0 0.563 0.268 0.795 0.411 0.5 0.295 1.018 0.571 1.527 0.857 0.179 0.089 0.616 0.286 0.679 0.473 0.027 0.063 0.027 0.125 0.027 0.188z"></path>
</symbol>
<symbol id="icon-envelope" viewBox="0 0 16 16">
<title>envelope</title>
<path d="M14.5 2h-13c-0.829 0-1.5 0.671-1.5 1.5v9c0 0.828 0.671 1.5 1.5 1.5h13c0.829 0 1.5-0.672 1.5-1.5v-9c0-0.829-0.671-1.5-1.5-1.5zM1.371 12.995l-0.365-0.366 4.125-4.124 0.365 0.366-4.125 4.124zM14.63 12.995l-4.125-4.124 0.366-0.366 4.125 4.124-0.366 0.366zM8.5 9.662v0.338h-1v-0.338l-6.498-6.025 0.636-0.636 6.362 5.899 6.363-5.899 0.636 0.636-6.498 6.025z"></path>
</symbol>
<symbol id="icon-location" viewBox="0 0 16 16">
<title>location</title>
<path d="M8 16s-5.6-7.304-5.6-10.4c0-3.093 2.507-5.6 5.6-5.6s5.6 2.507 5.6 5.6v0c0 3.096-5.6 10.4-5.6 10.4zM8 7.2c0.884 0 1.6-0.716 1.6-1.6s-0.716-1.6-1.6-1.6v0c-0.884 0-1.6 0.716-1.6 1.6s0.716 1.6 1.6 1.6v0z"></path>
</symbol>
</defs>
</svg>
